<svg xmlns="http://www.w3.org/2000/svg" width="1024" height="1024" viewBox="0 0 1024 1024" version="1.1">
	<path fill-opacity="0.122" d="M 96 51.059 C 96 51.641, 96.450 51.840, 97 51.500 C 97.550 51.160, 98 50.684, 98 50.441 C 98 50.198, 97.550 50, 97 50 C 96.450 50, 96 50.477, 96 51.059 M 488 244.022 C 488 244.420, 483.887 245.498, 478.859 246.418 C 473.832 247.338, 465.653 249.398, 460.684 250.996 C 455.715 252.594, 451.317 253.696, 450.910 253.444 C 450.503 253.193, 450.020 253.357, 449.835 253.808 C 449.651 254.259, 444.293 257.121, 437.929 260.169 C 431.565 263.216, 423.777 267.361, 420.622 269.379 C 417.467 271.397, 414.451 272.779, 413.918 272.450 C 413.386 272.121, 413.074 272.252, 413.225 272.741 C 413.376 273.230, 408.925 277.315, 403.333 281.819 C 348.752 325.780, 326.109 398.070, 346.946 461.836 C 356.464 490.960, 376.105 525.940, 405.974 566.958 C 409.762 572.160, 412.641 576.772, 412.372 577.208 C 412.102 577.643, 412.332 578, 412.883 578 C 413.433 578, 416.028 580.813, 418.649 584.250 C 421.270 587.688, 425.096 592.525, 427.150 595 C 456.296 630.116, 467.699 643.257, 486 662.816 C 492.875 670.163, 500.487 678.425, 502.916 681.175 C 508.045 686.984, 510.966 688.428, 514.409 686.859 C 515.730 686.258, 524.211 677.830, 533.255 668.133 C 574.863 623.516, 604.592 587.056, 633.762 544.866 C 646.900 525.864, 646.605 526.479, 643.226 525.153 C 632.144 520.806, 614.672 519, 602.294 520.922 C 580.070 524.372, 562.697 532.566, 539.282 550.640 C 521.946 564.021, 509.653 570.709, 493.400 575.600 C 485.679 577.924, 482.645 578.291, 470.500 578.366 C 456.017 578.456, 452.299 577.782, 442 573.200 C 433.361 569.357, 432.959 568.081, 441.069 570.246 C 451.129 572.931, 472.608 573.118, 482 570.603 C 491.244 568.128, 500.679 564.654, 509.412 560.510 C 513.566 558.538, 517.198 556.942, 517.482 556.963 C 517.767 556.983, 518.788 556.300, 519.750 555.444 C 521.594 553.805, 537.504 542.728, 552.262 532.809 C 571.704 519.741, 591.640 512.203, 611.522 510.402 C 619.865 509.646, 633.761 511.292, 643.264 514.161 C 646.984 515.284, 650.606 515.982, 651.312 515.710 C 652.018 515.439, 655.410 510.034, 658.849 503.698 C 672.086 479.314, 680.456 455.975, 683.607 434.662 C 687.752 406.627, 682.087 371.050, 669.094 343.503 C 666.369 337.726, 664.445 332.993, 664.820 332.985 C 665.194 332.976, 664.996 332.639, 664.381 332.235 C 663.766 331.831, 661.764 329.025, 659.932 326 C 655.733 319.064, 649.882 310.964, 644.333 304.405 C 641.962 301.603, 640.242 299.016, 640.511 298.655 C 640.780 298.295, 640.688 298.237, 640.306 298.527 C 639.229 299.346, 628.016 287.794, 628.708 286.578 C 629.045 285.985, 628.952 285.834, 628.503 286.241 C 628.053 286.649, 625.618 285.305, 623.092 283.256 C 620.566 281.207, 618.050 279.170, 617.500 278.729 C 616.950 278.289, 613.695 275.987, 610.267 273.614 C 606.839 271.241, 604.364 268.935, 604.767 268.490 C 605.170 268.045, 604.724 267.959, 603.776 268.299 C 602.708 268.682, 601.674 268.267, 601.057 267.208 C 600.509 266.269, 600.047 265.863, 600.030 266.307 C 600.014 266.750, 598.674 266.330, 597.054 265.373 C 595.434 264.416, 594.379 263.196, 594.709 262.662 C 595.039 262.128, 594.818 261.995, 594.217 262.366 C 593.616 262.737, 589.159 261.194, 584.312 258.936 C 574.203 254.227, 560.434 249.756, 548.439 247.286 C 543.876 246.347, 540.299 245.325, 540.491 245.015 C 540.876 244.391, 541.457 244.415, 510.250 243.763 C 498.012 243.507, 488 243.624, 488 244.022 M 501.500 262.647 C 459.543 267.511, 430.456 280.793, 403.753 307.281 C 387.609 323.294, 378.271 337.172, 370.059 357.355 C 352.815 399.734, 356.021 449.510, 378.458 487.794 L 381.873 493.620 390.687 485.039 C 407.227 468.934, 426.185 462.690, 442.819 467.867 C 451.243 470.488, 456.161 474.085, 459.421 480.008 C 461.802 484.335, 461.751 486.277, 459.250 486.481 C 458.012 486.583, 457 486.103, 457 485.416 C 457 484.722, 454.730 483.679, 451.898 483.072 C 442.462 481.048, 433.487 485.384, 429.783 493.757 C 427.018 500.008, 427.603 512.421, 430.997 519.500 C 434.700 527.224, 445.061 537.001, 454.191 541.388 C 465.203 546.678, 473.916 548.290, 488.500 547.736 C 498.734 547.347, 501.933 546.791, 510.237 543.960 C 515.592 542.135, 519.831 540.498, 519.656 540.323 C 519.482 540.148, 516.675 540.511, 513.419 541.130 C 500.090 543.663, 476.506 542.422, 465.780 538.623 C 458.843 536.167, 450.117 530.684, 445.408 525.823 C 439.944 520.182, 439.846 520.222, 451.460 523.380 C 462.304 526.328, 482.204 525.024, 495 520.528 C 503.450 517.559, 516.935 510.705, 516.312 509.696 C 515.970 509.143, 516.149 508.974, 516.708 509.319 C 517.267 509.665, 524.183 506.095, 532.076 501.385 C 549.257 491.134, 550.942 490.268, 562.500 485.735 C 588.423 475.569, 614.385 475.309, 637.129 484.987 C 641.023 486.644, 644.606 488, 645.090 488 C 645.575 488, 647.353 485.264, 649.041 481.919 C 659.064 462.062, 664.717 440.237, 665.465 418.500 C 666.404 391.209, 658.155 359.636, 644.042 336.500 C 634.214 320.390, 615.533 300.442, 600.698 290.217 C 591.499 283.876, 578.670 276.981, 568.585 272.958 C 548.815 265.072, 519.480 260.563, 501.500 262.647 M 489.131 285.500 C 485.883 293.750, 478.569 312.573, 472.879 327.329 C 462.826 353.398, 462.462 354.145, 460.017 353.695 C 458.632 353.441, 448.725 350.916, 438 348.085 C 427.275 345.253, 414.900 342.316, 410.500 341.558 C 401.764 340.051, 392.459 338.896, 395.250 339.665 C 397.289 340.226, 397.547 341.611, 395.750 342.341 C 394.829 342.714, 394.800 343.065, 395.641 343.674 C 396.376 344.206, 396.953 350.118, 397.259 360.264 C 397.726 375.704, 397.692 376.037, 395.618 376.451 C 388.537 377.866, 388.192 378.026, 388.531 379.746 C 388.721 380.711, 389.108 383.863, 389.391 386.750 C 389.799 390.910, 389.604 392, 388.453 392 C 386.648 392, 386.651 392.229, 388.501 396.657 C 389.834 399.848, 390.310 400.180, 392.751 399.627 C 402.314 397.459, 409.839 395.486, 428.500 390.254 C 440.050 387.015, 449.622 384.648, 449.770 384.993 C 450.237 386.079, 429.314 439.564, 422.844 453.825 C 419.568 461.046, 419.575 461.050, 436.302 461.181 C 444.443 461.244, 451.473 460.892, 451.923 460.398 C 452.374 459.904, 454.629 454.550, 456.934 448.500 C 465.655 425.611, 470.379 413.483, 470.763 413 C 470.981 412.725, 475.445 412.275, 480.684 412 L 490.209 411.500 489.710 416.500 C 489.436 419.250, 488.241 431.400, 487.055 443.500 C 480.265 512.781, 480.459 511.191, 478.627 512.531 C 477.663 513.235, 473.866 514.600, 470.188 515.564 C 461.202 517.918, 460.365 519.004, 467.550 518.983 C 484.664 518.933, 500.691 512.266, 533.874 491.396 L 543.249 485.500 542.627 477 C 542.285 472.325, 541.114 459.275, 540.024 448 C 536.281 409.277, 536.360 413.199, 539.312 412.458 C 540.730 412.102, 544.727 412.191, 548.195 412.655 L 554.500 413.500 558.616 424.885 C 563.266 437.745, 564.098 439.908, 569.010 451.918 L 572.520 460.500 587.845 460.777 L 603.171 461.053 602.515 458.069 C 602.155 456.428, 600.933 453.168, 599.801 450.823 C 598.668 448.479, 596.944 444.297, 595.970 441.531 C 594.995 438.764, 592.974 433.800, 591.478 430.500 C 589.982 427.200, 588.398 423.375, 587.958 422 C 587.518 420.625, 584.197 411.709, 580.579 402.186 C 573.673 384.013, 573.538 383.596, 574.772 384.359 C 575.456 384.782, 591.685 389.081, 621 396.605 C 626.225 397.946, 631.181 399.255, 632.014 399.514 C 634.362 400.244, 636.370 396.123, 636.979 389.328 C 637.283 385.933, 637.300 383.174, 637.016 383.196 C 634.634 383.383, 634.009 382.735, 634.415 380.498 C 634.823 378.246, 634.412 377.881, 630.312 376.848 L 625.756 375.701 626.338 368.601 C 626.659 364.695, 627.155 360.150, 627.442 358.500 C 627.914 355.782, 627.880 355.735, 627.081 358 C 626.383 359.979, 626.154 359.146, 625.981 354 C 625.861 350.425, 625.851 346.873, 625.958 346.106 C 626.066 345.340, 625.557 344.334, 624.827 343.872 C 623.816 343.231, 623.917 343.027, 625.250 343.015 C 627.134 342.999, 627.609 341.494, 626.038 340.523 C 624.466 339.552, 612.940 341.844, 587.936 348.102 C 574.976 351.346, 563.828 354, 563.164 354 C 561.675 354, 562.788 356.674, 545.046 310.500 C 542.933 305, 538.615 293.882, 535.450 285.793 L 529.696 271.087 512.367 270.793 L 495.037 270.500 489.131 285.500 M 507.048 314.719 C 501.775 330.424, 496.405 345.099, 493.861 350.753 C 491.666 355.632, 490 363.540, 490 369.082 C 490 372.194, 489.520 373.130, 487.378 374.195 C 485.661 375.050, 484.117 377.205, 482.902 380.441 C 481.883 383.158, 481.230 385.564, 481.453 385.786 C 481.675 386.008, 483.239 385.887, 484.928 385.516 C 487.850 384.874, 488 384.600, 488 379.921 L 488 375 491.500 375 L 495 375 495 369.107 C 495 364.791, 494.599 363.060, 493.500 362.638 C 491.295 361.792, 491.628 357.910, 493.957 357.301 C 495.061 357.012, 496.399 355.322, 497.024 353.427 C 498.317 349.509, 502.535 345.659, 507.503 343.863 C 510.179 342.895, 510.872 342.171, 510.436 340.798 C 509.587 338.122, 510.896 335, 512.867 335 C 515.371 335, 517 337.002, 517 340.079 C 517 342.120, 517.723 343.057, 520.040 344.017 C 523.593 345.488, 530 352.595, 530 355.063 C 530 356, 530.900 357.002, 532 357.290 C 534.360 357.907, 534.532 357.248, 532.577 355.079 C 531.795 354.210, 529.078 347.433, 526.540 340.017 C 524.002 332.602, 521.331 325.627, 520.605 324.517 C 519.880 323.408, 517.837 318.225, 516.067 313 C 514.296 307.775, 512.508 303.149, 512.093 302.719 C 511.678 302.290, 509.408 307.690, 507.048 314.719 M 516.079 320.583 C 516.127 321.748, 516.364 321.985, 516.683 321.188 C 516.972 320.466, 516.936 319.603, 516.604 319.271 C 516.272 318.939, 516.036 319.529, 516.079 320.583 M 533.500 354 C 533.840 354.550, 534.316 355, 534.559 355 C 534.802 355, 535 354.550, 535 354 C 535 353.450, 534.523 353, 533.941 353 C 533.359 353, 533.160 353.450, 533.500 354 M 533.250 362.720 C 532.424 363.015, 532 365.369, 532 369.655 C 532 375.771, 532.129 376.133, 534.250 375.961 C 538.797 375.593, 539 375.829, 539 381.500 C 539 386.700, 539.136 387, 541.500 387 C 544.345 387, 544.532 385.998, 542.897 379.505 C 542.023 376.033, 541.193 374.914, 538.897 374.114 C 537.304 373.558, 535.977 372.743, 535.949 372.302 C 535.840 370.571, 534.774 362.493, 534.641 362.387 C 534.563 362.325, 533.938 362.475, 533.250 362.720 M 500 369.500 C 500 374.162, 500.279 375, 501.829 375 C 503.352 375, 503.695 374.081, 503.880 369.500 C 504.081 364.548, 503.898 364, 502.051 364 C 500.232 364, 500 364.621, 500 369.500 M 509.218 365.250 C 507.891 366.865, 507.350 372.139, 508.346 373.751 C 509.418 375.486, 515.491 375.319, 516.989 373.513 C 518.295 371.940, 517.653 367.492, 515.797 365.256 C 514.456 363.639, 510.544 363.636, 509.218 365.250 M 521.843 369.499 C 522.157 374.549, 522.383 375, 524.593 375 C 526.844 375, 527 374.644, 527 369.500 C 527 364.167, 526.917 364, 524.250 363.999 C 521.542 363.997, 521.505 364.081, 521.843 369.499 M 499.667 382.667 C 498.597 383.736, 498.900 386.180, 500.016 385.490 C 500.575 385.144, 500.797 384.481, 500.510 384.016 C 500.223 383.551, 500.553 382.943, 501.244 382.664 C 501.938 382.384, 502.016 382.123, 501.417 382.079 C 500.821 382.036, 500.033 382.300, 499.667 382.667 M 508.250 382.662 C 507.563 382.940, 507 383.634, 507 384.206 C 507 384.860, 507.524 384.810, 508.416 384.069 C 509.541 383.136, 509.929 383.266, 510.300 384.697 C 510.669 386.119, 510.793 386.024, 510.884 384.250 C 511 381.991, 510.565 381.728, 508.250 382.662 M 511.649 422.711 C 499.237 427.637, 494.598 429.939, 494.035 431.449 C 493.614 432.577, 492.947 437.705, 492.553 442.844 L 491.835 452.187 494.168 451.481 C 500.524 449.559, 511.308 444.525, 509.750 444.209 C 508.327 443.920, 508 442.776, 508 438.082 C 508 431.875, 509.782 429, 513.629 429 C 516.820 429, 518 431.066, 518 436.655 L 518 441.910 524.750 439.383 C 528.462 437.992, 531.785 436.550, 532.133 436.177 C 532.481 435.805, 532.481 431.230, 532.133 426.011 C 531.645 418.693, 531.157 416.464, 530 416.272 C 529.175 416.136, 520.917 419.033, 511.649 422.711 M 510.832 466.756 L 489.165 475.290 488.505 484.895 C 488.142 490.178, 487.610 495.332, 487.324 496.349 C 486.887 497.898, 487.183 498.079, 489.151 497.464 C 490.443 497.061, 491.725 496.454, 492 496.115 C 492.275 495.777, 492.950 495.490, 493.500 495.477 C 494.050 495.465, 497.200 494.430, 500.500 493.178 L 506.500 490.901 506.798 484.795 C 507.152 477.541, 508.202 475.238, 511.536 474.402 C 515.377 473.437, 518.863 476.290, 519.619 481.017 C 519.969 483.208, 520.446 485, 520.678 485 C 520.911 485, 524.734 483.565, 529.173 481.810 L 537.245 478.620 536.623 472.664 C 536.280 469.387, 536 464.748, 536 462.353 C 536 458.832, 535.666 458.021, 534.250 458.111 C 533.288 458.171, 522.750 462.062, 510.832 466.756 M 414.333 581.456 C 414.333 582.257, 414.716 582.676, 415.183 582.387 C 415.650 582.098, 415.774 581.443, 415.457 580.931 C 414.649 579.623, 414.333 579.770, 414.333 581.456 M 532.268 728.393 C 525.876 731.445, 523.003 735.671, 523.018 742 C 523.040 750.734, 526.245 753.765, 539.500 757.588 C 549.395 760.442, 551 761.349, 551 764.087 C 551 766.639, 547.991 768, 542.349 768 C 537.396 768, 528.697 765.300, 529.494 764.010 C 529.870 763.402, 527.507 763.332, 524.880 763.872 C 524.144 764.024, 521.549 772.921, 522.112 773.360 C 522.325 773.526, 524.750 774.906, 527.500 776.426 C 531.917 778.867, 533.474 779.175, 540.850 779.066 C 545.785 778.994, 550.687 778.322, 552.836 777.424 C 562.551 773.365, 566.677 763.902, 562.044 756.304 C 559.279 751.769, 556.028 749.960, 546.688 747.758 C 542.185 746.696, 537.761 745.166, 536.858 744.357 C 534.990 742.683, 535.511 739, 537.617 739 C 538.377 739, 539 738.550, 539 738 C 539 736.228, 549.282 736.945, 553.899 739.040 C 556.318 740.137, 558.391 740.915, 558.504 740.768 C 558.617 740.620, 559.434 738.330, 560.319 735.678 L 561.928 730.856 557.214 728.758 C 554.245 727.437, 549.724 726.519, 545 726.278 C 538.579 725.950, 536.747 726.254, 532.268 728.393 M 776.340 727.372 C 768.899 729.811, 763.427 734.450, 759.677 741.500 C 758.079 744.503, 757.552 747.257, 757.563 752.547 C 757.583 761.930, 761.247 768.806, 769.164 774.314 C 773.986 777.668, 775.540 778.192, 782.073 778.668 C 788.155 779.110, 790.533 778.817, 795.206 777.049 C 805.473 773.163, 813 762.798, 813 752.544 C 813 747.398, 810.470 740.382, 807.064 736.081 C 800.887 728.281, 786.236 724.128, 776.340 727.372 M 229.569 727.889 C 229.266 728.378, 227.483 732.315, 225.606 736.639 C 223.728 740.963, 218.999 751.621, 215.096 760.324 C 211.193 769.028, 208 776.565, 208 777.074 C 208 777.583, 210.813 777.995, 214.250 777.989 L 220.500 777.978 222.500 772.739 L 224.500 767.500 235.864 767.500 L 247.228 767.500 249.364 772.749 L 251.500 777.998 257.750 777.999 C 261.188 778, 264 777.608, 264 777.128 C 264 776.649, 259.275 765.619, 253.500 752.618 C 247.725 739.617, 243 728.534, 243 727.990 C 243 726.758, 230.326 726.663, 229.569 727.889 M 267 731.893 C 267 735.621, 267.417 736.952, 268.750 737.484 C 269.712 737.868, 275.638 738.116, 281.918 738.035 C 292.671 737.898, 293.254 737.991, 291.918 739.637 C 291.138 740.598, 285.033 747.862, 278.350 755.778 C 259.525 778.080, 259.486 778, 289.383 778 C 301.639 778, 311.854 777.813, 312.083 777.584 C 312.313 777.355, 312.345 774.892, 312.155 772.111 L 311.811 767.055 298.249 766.778 L 284.687 766.500 297.844 750.872 C 310.063 736.357, 311 734.950, 311 731.122 L 311 727 289 727 L 267 727 267 731.893 M 333.032 734.750 C 326.302 750.819, 317.680 768.920, 316.967 768.479 C 316.559 768.228, 316.246 768.579, 316.270 769.261 C 316.384 772.401, 315.923 774.070, 315.085 773.553 C 314.582 773.242, 313.974 773.553, 313.733 774.244 C 312.935 776.530, 314.177 778, 316.907 778 C 318.388 778, 320.206 778.563, 320.947 779.250 C 322.024 780.250, 322.152 780.250, 321.588 779.250 C 321.090 778.368, 321.789 778, 323.966 778 C 326.415 778, 327.260 777.434, 328.074 775.250 C 328.637 773.737, 329.636 771.263, 330.293 769.750 L 331.488 767 342.619 767 L 353.749 767 355.633 772.250 L 357.517 777.500 364.258 777.796 C 367.966 777.958, 371 777.896, 371 777.658 C 371 777.420, 369.601 774.137, 367.891 770.362 C 363.095 759.778, 361.140 755.388, 355.930 743.500 C 347.926 725.236, 349.387 727.017, 342.389 727.008 L 336.277 727 333.032 734.750 M 377 752.500 L 377 778 383.500 778 L 390 778 390 771.153 C 390 765.741, 390.419 763.823, 392 762 C 393.100 760.732, 394.007 760.100, 394.015 760.597 C 394.024 761.094, 394.439 760.854, 394.939 760.064 C 396.202 758.069, 397.618 759.391, 405.066 769.511 C 408.426 774.077, 411.923 777.967, 412.837 778.156 C 413.752 778.345, 417.045 778.275, 420.157 778 L 425.813 777.500 423.157 773.920 C 421.695 771.950, 417.003 765.680, 412.728 759.985 C 408.454 754.290, 405.079 749.294, 405.228 748.883 C 405.378 748.471, 409.663 743.641, 414.750 738.149 C 419.837 732.657, 424 727.902, 424 727.582 C 424 727.262, 420.905 727, 417.122 727 C 412.252 727, 409.884 727.434, 409.009 728.489 C 408.329 729.308, 407.305 729.688, 406.732 729.334 C 406.160 728.981, 405.966 729.137, 406.303 729.681 C 407.142 731.039, 394.092 745.175, 392.759 744.351 C 392.170 743.987, 391.979 744.158, 392.334 744.732 C 392.688 745.305, 392.308 746.329, 391.489 747.009 C 390.186 748.090, 390 746.916, 390 737.622 L 390 727 383.500 727 L 377 727 377 752.500 M 431.667 727.667 C 431.300 728.033, 431 739.508, 431 753.167 L 431 778 450.579 778 L 470.159 778 469.826 772.750 L 469.493 767.500 456.746 767.220 L 444 766.940 444 746.970 L 444 727 438.167 727 C 434.958 727, 432.033 727.300, 431.667 727.667 M 476.977 739.750 C 476.964 746.763, 476.851 758.238, 476.727 765.251 L 476.500 778.002 483.250 778.001 L 490 778 490 752.500 L 490 727 483.500 727 L 477 727 476.977 739.750 M 566.198 732.250 L 566.500 737.500 574.229 737.792 L 581.958 738.083 582.229 757.792 L 582.500 777.500 588.750 777.798 L 595 778.095 595 758.090 L 595 738.084 602.750 737.792 L 610.500 737.500 610.802 732.250 L 611.105 727 588.500 727 L 565.895 727 566.198 732.250 M 617 742.818 C 617 753.797, 617.448 760.146, 618.464 763.568 C 619.270 766.281, 619.938 768.845, 619.949 769.267 C 619.976 770.275, 625.877 775.380, 628.778 776.904 C 630.040 777.566, 630.751 778.593, 630.373 779.205 C 629.941 779.904, 630.153 780.023, 630.951 779.530 C 631.644 779.102, 636.419 778.712, 641.561 778.665 C 646.704 778.617, 650.734 778.400, 650.516 778.183 C 650.299 777.966, 652.007 776.367, 654.311 774.630 C 656.615 772.893, 659.513 769.470, 660.750 767.024 C 662.832 762.908, 663 761.251, 663 744.788 L 663 727 656.750 727.002 L 650.500 727.003 650.500 744.423 C 650.500 761.537, 650.457 761.888, 648.048 764.451 C 646.699 765.885, 645.056 766.852, 644.396 766.598 C 643.736 766.345, 642.915 766.418, 642.572 766.761 C 641.495 767.838, 637.842 768.065, 638.491 767.014 C 638.843 766.444, 638.444 766.276, 637.552 766.618 C 636.698 766.946, 636 766.716, 636 766.107 C 636 765.498, 635.452 765.113, 634.783 765.250 C 634.114 765.388, 632.765 763.925, 631.785 762 C 630.300 759.083, 630.003 755.878, 630.002 742.750 L 630 727 623.500 727 L 617 727 617 742.818 M 675 752.412 C 675 776.095, 675.130 778.004, 676.750 778.052 C 692.639 778.528, 704.695 777.712, 709.754 775.819 C 722.769 770.950, 728.861 758.280, 724.814 744.500 C 724.168 742.300, 723.732 739.971, 723.846 739.325 C 723.960 738.679, 723.522 737.822, 722.872 737.421 C 722.061 736.919, 721.956 737.131, 722.537 738.095 C 723.257 739.289, 723.131 739.295, 721.703 738.137 C 720.778 737.387, 720.312 736.305, 720.666 735.732 C 721.019 735.160, 720.840 734.981, 720.268 735.334 C 719.695 735.688, 718.641 735.273, 717.926 734.411 C 717.211 733.549, 714.347 731.649, 711.563 730.188 C 706.821 727.700, 705.503 727.510, 690.750 727.178 L 675 726.824 675 752.412 M 735.687 727.750 C 735.351 728.335, 735.563 774.046, 735.917 777.250 C 735.963 777.663, 738.700 778, 742 778 L 748 778 748 752.500 L 748 727 742.059 727 C 738.791 727, 735.924 727.337, 735.687 727.750 M 777.664 739.112 C 772.660 741.752, 769.490 748.407, 770.431 754.293 C 771.244 759.376, 774.036 764.200, 775.779 763.531 C 776.508 763.252, 776.843 763.445, 776.524 763.961 C 774.771 766.797, 789.022 767.748, 793.835 765.116 C 796.614 763.596, 799.956 756.708, 799.956 752.500 C 799.956 750.850, 799.081 747.572, 798.012 745.216 C 794.668 737.848, 785.355 735.055, 777.664 739.112 M 688 752.500 L 688 767 695.550 767 C 700.410 767, 704.166 766.448, 706.094 765.451 C 715.346 760.667, 715.250 744.821, 705.938 739.827 C 703.534 738.538, 700.393 738, 695.266 738 L 688 738 688 752.500 M 232.648 748.355 C 231.192 752.458, 230 756.081, 230 756.407 C 230 756.733, 232.700 757, 236 757 C 239.300 757, 242 756.580, 242 756.066 C 242 754.919, 236.925 742.808, 235.979 741.698 C 235.604 741.257, 234.105 744.253, 232.648 748.355 M 339.467 748.085 C 335.793 757.230, 335.587 757.869, 336.909 756 C 337.628 754.983, 337.974 754.903, 337.985 755.750 C 338.008 757.671, 344.065 757.276, 345.642 755.250 C 346.716 753.871, 346.889 753.836, 346.459 755.083 C 346.125 756.055, 346.479 756.667, 347.377 756.667 C 348.887 756.667, 348.703 756.015, 343.826 744.099 L 342.434 740.698 339.467 748.085 M 415.613 763.183 C 415.902 763.650, 416.557 763.774, 417.069 763.457 C 418.377 762.649, 418.230 762.333, 416.544 762.333 C 415.743 762.333, 415.324 762.716, 415.613 763.183 M 537 766 C 537 766.550, 537.477 767, 538.059 767 C 538.641 767, 538.840 766.550, 538.500 766 C 538.160 765.450, 537.684 765, 537.441 765 C 537.198 765, 537 765.450, 537 766" stroke="none" fill="#009688" fill-rule="evenodd"/>
	<path fill-opacity="0.098" d="M 482.534 246.033 C 419.180 256.696, 364.277 305.252, 346.601 366.250 C 333.443 411.655, 338.426 451.834, 363.026 498.667 C 386.233 542.848, 421.197 590.359, 473.972 649.422 C 497.033 675.231, 508.942 687, 511.997 687 C 514.094 687, 517.136 684.467, 526.111 675.250 C 546.203 654.615, 575.116 621.711, 596.628 595 C 613.409 574.164, 645.398 528.727, 644.737 526.668 C 644.531 526.025, 640.344 524.435, 635.431 523.134 C 617.548 518.398, 594.989 520.438, 575.798 528.528 C 563.924 533.533, 556.807 537.877, 540.049 550.348 C 517.181 567.367, 504.668 573.716, 486.665 577.434 C 476.920 579.447, 461.164 579.454, 453.460 577.448 C 447.778 575.969, 432.452 569.214, 433.164 568.503 C 433.350 568.316, 437.327 569.072, 442.001 570.181 C 454.437 573.132, 475.764 572.413, 488.500 568.612 C 499.628 565.291, 516.977 556.869, 527.221 549.816 C 555.270 530.503, 562.978 525.570, 571.228 521.651 C 597.362 509.237, 619.953 506.909, 644.339 514.116 C 652.613 516.562, 651.131 517.962, 661.386 498 C 671.629 478.061, 675.880 467.270, 680.467 449.563 C 689.295 415.479, 684.243 374.911, 666.723 339.188 C 650.825 306.772, 625.440 280.978, 591.842 263.101 C 575.858 254.596, 560.198 249.401, 540.151 245.952 C 525.025 243.350, 498.247 243.388, 482.534 246.033 M 491 263.485 C 453.912 269.619, 424.851 284.666, 400.172 310.515 C 379.793 331.860, 367.775 355.162, 361.294 385.898 C 356.067 410.692, 358.328 439.225, 367.536 464.674 C 370.389 472.559, 379.719 491.928, 381.637 493.948 C 381.871 494.194, 384.077 492.091, 386.541 489.275 C 396.292 478.128, 411.915 468.945, 424.467 466.982 C 440.831 464.423, 457.747 472.084, 460.388 483.250 C 461.144 486.449, 461.117 486.461, 457.391 484.528 C 445.349 478.280, 430.766 485.154, 428.026 498.369 C 425.073 512.609, 432.410 527.879, 446.699 537.229 C 459.283 545.463, 468.122 547.940, 485.062 547.976 C 497.760 548.002, 507.728 545.989, 517.218 541.479 C 520.123 540.099, 521.741 539.176, 520.812 539.429 C 509.392 542.542, 486.950 543.137, 474.675 540.652 C 470.372 539.781, 463.537 537.474, 459.486 535.525 C 452.431 532.132, 440.854 522.853, 442.094 521.586 C 442.421 521.252, 444.671 521.754, 447.094 522.701 C 453.692 525.280, 481.124 525.214, 489.500 522.599 C 500.006 519.319, 512.135 513.585, 525 505.816 C 550.345 490.510, 560.725 485.632, 577.174 481.296 C 586.117 478.938, 589.442 478.572, 602 478.560 C 617.976 478.544, 625.657 480.104, 638.677 486.008 C 642.307 487.653, 645.374 489, 645.492 489 C 646.345 489, 655.452 468.784, 657.880 461.500 C 663.642 444.214, 665.390 433.283, 665.395 414.500 C 665.399 399.669, 665.046 395.856, 662.626 384.619 C 655.814 352.991, 643.546 330.164, 621.263 307.652 C 598.938 285.098, 573.200 271.343, 541.299 264.915 C 527.504 262.136, 503.317 261.448, 491 263.485 M 511.254 336.146 C 510.624 336.776, 510.350 338.499, 510.645 339.975 C 511.131 342.406, 510.752 342.823, 506.619 344.401 C 501.622 346.310, 497 351.004, 497 354.170 C 497 355.314, 496.174 356.403, 495.092 356.686 C 492.670 357.320, 491.774 360.567, 493.603 362.086 C 494.535 362.859, 495 365.394, 495 369.698 L 495 376.151 491.750 375.825 C 488.504 375.500, 488.500 375.505, 488.229 380.500 C 488.080 383.250, 487.415 386.561, 486.753 387.857 C 485.681 389.953, 485.866 390.488, 488.419 392.684 L 491.291 395.155 490.624 406.139 C 490.031 415.900, 487.775 439.825, 482.304 494.383 L 480.610 511.266 477.573 513.113 C 475.903 514.129, 472.145 515.496, 469.222 516.150 C 466.300 516.804, 463.633 517.785, 463.296 518.329 C 462.451 519.697, 476.498 518.436, 484.334 516.442 C 493.025 514.230, 510.105 505.826, 526.500 495.696 C 534.200 490.939, 541.130 486.678, 541.901 486.227 C 543.092 485.530, 542.974 481.985, 541.108 462.454 C 538.370 433.809, 535.141 402.694, 534.392 397.750 C 533.892 394.450, 534.071 394, 535.877 394 C 539.037 394, 539.943 391.107, 539.185 383.436 L 538.500 376.500 535 376 L 531.500 375.500 531.202 369.250 C 530.959 364.147, 531.189 363, 532.452 363 C 533.304 363, 534 362.362, 534 361.582 C 534 359.133, 532.837 357, 531.501 357 C 530.795 357, 529.943 355.910, 529.609 354.577 C 528.690 350.916, 524.592 346.571, 520.182 344.582 C 517.260 343.265, 516.360 342.337, 516.709 341.004 C 517.291 338.779, 515.375 335, 513.665 335 C 512.969 335, 511.884 335.516, 511.254 336.146 M 431.603 349.167 C 431.886 349.625, 431.529 350.007, 430.809 350.015 C 430.010 350.025, 429.889 350.317, 430.500 350.765 C 431.056 351.174, 431.575 356.996, 431.669 363.891 C 431.791 372.822, 432.201 376.506, 433.137 377.085 C 434.916 378.184, 435.250 385, 433.525 385 C 432.804 385, 431.981 385.607, 431.696 386.349 C 431.117 387.858, 431.581 387.796, 448.500 384.104 C 454 382.904, 465.250 380.004, 473.500 377.659 L 488.500 373.395 489.035 368.118 C 489.453 364.003, 489.232 362.662, 488.035 362.028 C 484.608 360.214, 436.225 348.173, 432.794 348.280 C 431.856 348.309, 431.320 348.708, 431.603 349.167 M 581 350.676 C 575.775 352.027, 568.350 353.788, 564.500 354.588 C 557.736 355.994, 545.955 359.052, 539.250 361.142 C 536.474 362.007, 536.002 362.618, 536.014 365.328 C 536.044 372.364, 536.427 372.713, 548.363 376.590 C 560.374 380.491, 568.056 382.635, 573.232 383.531 C 575.029 383.842, 578.975 384.701, 582 385.441 C 585.025 386.181, 589.075 387.047, 591 387.366 L 594.500 387.946 591.750 386.441 C 590.236 385.612, 589 384.078, 589 383.027 C 589 381.977, 588.550 380.840, 588 380.500 C 586.341 379.474, 586.859 378.385, 589.602 377.136 C 591.578 376.235, 591.944 375.638, 591.126 374.651 C 590.416 373.796, 590.385 373.015, 591.036 372.364 C 591.659 371.741, 591.712 369.100, 591.181 365.215 C 590.608 361.022, 590.680 358.940, 591.407 358.698 C 592.145 358.452, 592.099 357.513, 591.260 355.671 C 590.300 353.565, 590.303 352.997, 591.271 352.985 C 592.062 352.975, 591.965 352.624, 591 352 C 589.787 351.216, 589.931 351.028, 591.750 351.015 C 592.987 351.007, 594 350.502, 594 349.893 C 594 349.284, 593.302 349.054, 592.448 349.382 C 591.558 349.723, 591.157 349.555, 591.507 348.989 C 592.274 347.747, 592.401 347.727, 581 350.676 M 499.843 369.501 C 499.522 374.642, 499.648 375.003, 501.750 375.001 C 503.810 375, 504 374.537, 504 369.500 C 504 364.756, 503.738 364, 502.093 364 C 500.489 364, 500.131 364.875, 499.843 369.501 M 507.891 367.968 C 506.417 372.890, 507.777 375, 512.422 375 C 516.203 375, 518 373.464, 518 370.234 C 518 366.017, 516.222 364, 512.505 364 C 509.380 364, 508.976 364.348, 507.891 367.968 M 521.511 369.750 C 521.518 373.706, 521.908 375.469, 522.761 375.400 C 523.442 375.345, 524.675 375.233, 525.500 375.150 C 526.633 375.037, 527 373.656, 527 369.500 C 527 364.167, 526.917 364, 524.250 364 C 521.568 364, 521.500 364.141, 521.511 369.750 M 492 383 C 492 385, 492.500 386, 493.500 386 C 494.500 386, 495 385, 495 383 C 495 381, 494.500 380, 493.500 380 C 492.500 380, 492 381, 492 383 M 499 383 C 499 385.333, 499.444 386, 501 386 C 502.556 386, 503 385.333, 503 383 C 503 380.667, 502.556 380, 501 380 C 499.444 380, 499 380.667, 499 383 M 507 383 C 507 385.487, 507.404 386, 509.363 386 C 511.645 386, 511.895 385.257, 511.128 380.750 C 511.057 380.337, 510.100 380, 509 380 C 507.444 380, 507 380.667, 507 383 M 516 383 C 516 385.333, 516.444 386, 518 386 C 519.556 386, 520 385.333, 520 383 C 520 380.667, 519.556 380, 518 380 C 516.444 380, 516 380.667, 516 383 M 524 383 C 524 385, 524.500 386, 525.500 386 C 526.500 386, 527 385, 527 383 C 527 381, 526.500 380, 525.500 380 C 524.500 380, 524 381, 524 383 M 532 383 C 532 385, 532.500 386, 533.500 386 C 534.500 386, 535 385, 535 383 C 535 381, 534.500 380, 533.500 380 C 532.500 380, 532 381, 532 383 M 504.573 395.118 C 505.052 395.893, 504.006 396.115, 501.152 395.843 C 496.565 395.406, 496.453 395.548, 496.097 402.296 L 495.843 407.092 499.672 405.464 C 501.777 404.568, 508.894 401.815, 515.488 399.347 C 522.081 396.878, 527.668 394.665, 527.904 394.429 C 528.140 394.193, 522.832 394, 516.108 394 C 507.354 394, 504.078 394.317, 504.573 395.118 M 512 422.302 L 493.500 429.540 492.494 440.770 C 491.701 449.621, 491.752 452, 492.737 452 C 493.424 452, 498.152 450.316, 503.243 448.258 C 509.616 445.682, 511.799 444.414, 510.250 444.188 C 508.233 443.895, 508 443.298, 508 438.430 C 508 434.333, 508.491 432.509, 510 431 C 514.239 426.761, 518 429.665, 518 437.178 C 518 440.791, 518.353 442.081, 519.250 441.743 C 519.938 441.484, 523.368 440.230, 526.874 438.957 L 533.247 436.642 532.624 430.674 C 532.281 427.392, 532 422.523, 532 419.853 C 532 417.184, 531.663 415.014, 531.250 415.032 C 530.837 415.049, 522.175 418.321, 512 422.302 M 512.095 466.048 C 499.772 470.959, 489.534 475.133, 489.344 475.323 C 488.684 475.983, 486.838 497.171, 487.393 497.726 C 487.699 498.033, 492.124 496.688, 497.225 494.738 L 506.500 491.192 507 484.137 C 507.391 478.626, 507.938 476.751, 509.500 475.572 C 511.946 473.727, 512.260 473.706, 515.458 475.163 C 518.056 476.346, 520.751 482.976, 519.475 485.041 C 518.830 486.085, 529.652 482.265, 534.623 479.695 L 537.517 478.198 536.601 467.599 C 536.097 461.770, 535.418 457.027, 535.092 457.060 C 534.767 457.093, 524.418 461.138, 512.095 466.048 M 535.721 727.420 C 525.402 730.196, 520.369 739.652, 524.536 748.435 C 526.390 752.342, 531.350 755.275, 539.780 757.450 C 549.434 759.941, 551.147 760.945, 550.799 763.910 C 550.167 769.288, 540.498 770.356, 531.569 766.033 C 526.119 763.395, 525.444 763.461, 524.215 766.750 C 521.790 773.240, 521.681 772.961, 527.759 775.809 C 535.527 779.450, 548.266 779.664, 554.666 776.261 C 562.587 772.048, 565.845 763.846, 562.302 757.034 C 560.025 752.654, 556.305 750.513, 546.887 748.159 C 537.753 745.877, 535 744.478, 535 742.120 C 535 736.951, 543.821 735.199, 553.345 738.476 C 556.009 739.393, 558.287 739.999, 558.406 739.822 C 558.525 739.645, 559.335 737.616, 560.206 735.314 L 561.789 731.128 558.602 729.616 C 551.123 726.067, 543.481 725.333, 535.721 727.420 M 779.344 727.031 C 773.325 728.237, 767.782 731.345, 764.030 735.618 C 759.474 740.807, 757.933 745.055, 757.875 752.584 C 757.818 760.064, 760.027 765.277, 765.780 771.242 C 778.161 784.076, 803.629 779.158, 810.527 762.601 C 812.655 757.494, 812.672 747.548, 810.562 742.483 C 805.978 731.481, 791.902 724.514, 779.344 727.031 M 229.084 729.250 C 228.607 730.487, 225.196 738.250, 221.502 746.500 C 210.244 771.648, 208.122 776.788, 208.740 777.406 C 209.585 778.252, 218.289 778.114, 219.574 777.235 C 220.164 776.831, 221.514 774.364, 222.574 771.754 L 224.500 767.007 235.763 767.004 L 247.025 767 249.458 772.500 L 251.890 778 257.945 778 C 261.275 778, 264 777.755, 264 777.455 C 264 777.154, 260.127 768.267, 255.393 757.705 C 250.659 747.142, 245.843 736.250, 244.690 733.500 C 243.538 730.750, 242.124 728.169, 241.547 727.765 C 240.971 727.361, 238.126 727.024, 235.225 727.015 C 230.671 727.002, 229.832 727.307, 229.084 729.250 M 268 732 L 268 737 280.500 737 C 287.375 737, 293 737.387, 293 737.860 C 293 738.658, 281.391 752.923, 271.335 764.483 C 267.677 768.687, 267 770.133, 267 773.733 L 267 778 289.500 778 L 312 778 312 773 C 312 768.499, 311.776 767.994, 309.750 767.942 C 308.512 767.909, 302.212 767.903, 295.750 767.927 C 289.288 767.952, 284 767.726, 284 767.426 C 284 767.126, 287.262 763.024, 291.250 758.311 C 306.351 740.459, 310.940 734.459, 310.478 733.168 C 310.215 732.436, 310 730.748, 310 729.418 L 310 727 289 727 L 268 727 268 732 M 333.857 733.750 C 332.197 737.462, 327.276 748.385, 322.920 758.021 C 318.564 767.658, 315 776.096, 315 776.771 C 315 777.603, 316.894 778, 320.866 778 L 326.732 778 328.725 772.750 L 330.718 767.500 342.163 767.220 L 353.607 766.940 355.899 772.470 L 358.191 778 363.929 778 C 367.085 778, 369.923 777.744, 370.236 777.431 C 370.549 777.118, 369.107 773.180, 367.031 768.681 C 364.956 764.181, 361.355 756.225, 359.030 751 C 356.705 745.775, 353.295 738.237, 351.451 734.250 L 348.099 727 342.487 727 L 336.875 727 333.857 733.750 M 377.450 728.270 C 377.182 728.968, 377.084 740.331, 377.231 753.520 L 377.500 777.500 383.108 777.796 L 388.716 778.091 389.313 773.733 C 389.642 771.335, 389.658 768.410, 389.350 767.231 C 388.945 765.682, 389.777 764.043, 392.360 761.305 C 396.392 757.032, 395.301 756.485, 402.943 766.612 C 411.455 777.891, 411.606 778, 418.687 778 C 422.159 778, 425 777.767, 425 777.482 C 425 777.198, 420.500 770.971, 415 763.646 C 409.500 756.320, 405 749.850, 405 749.268 C 405 748.686, 409.163 743.831, 414.250 738.479 C 419.337 733.127, 423.650 728.355, 423.833 727.874 C 424.017 727.393, 421.324 727, 417.849 727 L 411.531 727 400.266 738.234 L 389 749.467 389 738.234 L 389 727 383.469 727 C 379.920 727, 377.763 727.455, 377.450 728.270 M 431.669 751.563 C 431.310 765.123, 431.264 776.618, 431.567 777.109 C 431.870 777.599, 440.440 778, 450.611 778 L 469.105 778 468.802 772.750 L 468.500 767.500 456.271 767.219 L 444.042 766.939 443.771 747.219 L 443.500 727.500 437.911 727.205 L 432.323 726.910 431.669 751.563 M 477.667 727.667 C 477.300 728.033, 477 739.530, 477 753.214 L 477 778.095 483.250 777.798 C 486.688 777.634, 489.387 777.163, 489.250 776.750 C 489.113 776.337, 489 764.975, 489 751.500 L 489 727 483.667 727 C 480.733 727, 478.033 727.300, 477.667 727.667 M 566.686 727.648 C 566.309 728.025, 566 730.283, 566 732.667 L 566 737 572.250 737.100 C 579.962 737.223, 582.476 737.989, 582.583 740.250 C 582.629 741.212, 582.742 750.122, 582.833 760.050 L 583 778.100 588.750 777.800 L 594.500 777.500 594.771 757.250 L 595.041 737 603.075 737 L 611.110 737 610.805 732.250 L 610.500 727.500 588.936 727.231 C 577.075 727.083, 567.063 727.271, 566.686 727.648 M 617.675 729.250 C 617.376 730.487, 617.279 738.571, 617.459 747.213 C 617.746 760.982, 618.060 763.493, 620 767.500 C 626.635 781.206, 650.169 782.776, 658.723 770.084 C 662.375 764.664, 663.068 760.079, 662.776 743.298 L 662.500 727.500 657 727.500 L 651.500 727.500 651 744.500 C 650.469 762.568, 649.893 764.817, 645.257 766.929 C 641.179 768.787, 637.236 768.183, 633.884 765.188 C 631 762.611, 630.669 761.668, 629.931 753.938 C 629.488 749.297, 629.098 741.337, 629.063 736.250 L 629 727 623.608 727 C 618.844 727, 618.154 727.262, 617.675 729.250 M 675.515 728.127 C 675.230 728.882, 675.111 740.300, 675.249 753.500 L 675.500 777.500 688.782 777.779 C 706.559 778.153, 713.672 775.977, 720.718 768.008 C 728.306 759.427, 727.141 743.154, 718.342 734.804 C 712.447 729.210, 706.885 727.675, 690.766 727.194 C 678.890 726.839, 675.932 727.020, 675.515 728.127 M 736 752.500 L 736 778.100 741.750 777.800 L 747.500 777.500 747.500 752.500 L 747.500 727.500 741.750 727.200 L 736 726.900 736 752.500 M 687.650 737.757 C 687.252 738.402, 687.302 743.443, 687.906 763.621 C 687.995 766.578, 688.250 766.773, 692.750 767.328 C 699.863 768.205, 705.742 766.720, 709.319 763.143 C 711.989 760.472, 712.449 759.220, 712.755 753.780 C 713.195 745.962, 710.928 741.778, 704.729 738.964 C 700.483 737.036, 688.614 736.197, 687.650 737.757 M 777 739.181 C 772.047 742.519, 769.802 747.321, 770.264 753.592 C 770.945 762.856, 777.803 768.733, 786.756 767.724 C 794.637 766.836, 799.997 760.673, 799.997 752.500 C 799.997 743.890, 794.458 737.942, 785.791 737.247 C 781.445 736.898, 779.875 737.243, 777 739.181 M 339.698 746.744 C 338.255 750.460, 336.785 754.288, 336.430 755.250 C 335.857 756.807, 336.527 757, 342.500 757 C 348.498 757, 349.138 756.813, 348.505 755.250 C 348.115 754.288, 346.679 750.575, 345.313 747 C 343.948 743.425, 342.716 740.385, 342.576 740.244 C 342.436 740.103, 341.140 743.028, 339.698 746.744 M 233.421 745.750 C 232.461 748.362, 231.074 752.017, 230.338 753.872 C 229.602 755.727, 229 757.363, 229 757.507 C 229 757.888, 241.425 756.824, 241.892 756.403 C 242.479 755.873, 236.646 741, 235.852 741 C 235.474 741, 234.380 743.138, 233.421 745.750" stroke="none" fill="#00bfa5" fill-rule="evenodd"/>
	<path fill-opacity="0.223" d="M 490 245.011 C 470.481 247.686, 450.020 254.258, 432.266 263.556 C 413.337 273.469, 401.523 282.403, 386.500 298.164 C 361.615 324.272, 345.730 357.563, 340.917 393.692 C 339.418 404.940, 340.327 433.943, 342.478 443.500 C 353.370 491.903, 388.776 550.063, 452.868 624.832 C 484.263 661.458, 508.486 687.041, 511.747 687.017 C 514.750 686.994, 519.240 682.792, 537.865 662.567 C 568.593 629.201, 591.211 602.245, 612.609 573.489 C 629.788 550.405, 645.562 527.229, 644.690 526.357 C 642.642 524.309, 629.192 521.760, 617.902 521.281 C 607.276 520.829, 603.674 521.094, 594.902 522.970 C 574.855 527.258, 563.610 532.979, 539 551.411 C 521.893 564.222, 506.828 572.436, 493.500 576.215 C 486.701 578.143, 483.098 578.485, 469.500 578.492 C 454.090 578.500, 453.242 578.393, 446.500 575.588 C 439.371 572.622, 428.863 566.463, 432.500 567.382 C 433.600 567.659, 437.200 568.700, 440.500 569.693 C 449.935 572.534, 474.832 572.267, 485.396 569.210 C 503.817 563.881, 516.721 557.254, 537.500 542.452 C 570.045 519.269, 588.539 511.422, 613.354 510.268 C 626.029 509.679, 635.263 510.818, 644.974 514.169 L 650.500 516.075 652.275 513.897 C 657.513 507.465, 670.968 479.187, 675.894 464.259 C 683.049 442.573, 683.500 439.588, 683.496 414 L 683.491 390.500 679.700 375.723 C 675.283 358.508, 670.183 345.472, 662.397 331.500 C 642.162 295.185, 606.046 265.447, 566.482 252.524 C 549.753 247.059, 535.999 244.893, 515.500 244.492 C 505.050 244.288, 493.575 244.521, 490 245.011 M 487.500 263.898 C 460.299 268.936, 439.409 277.815, 419.049 292.990 C 410.242 299.554, 394.340 315.679, 386.990 325.500 C 370.937 346.948, 359.646 379.430, 358.274 408.112 C 357.026 434.192, 364.647 465.137, 377.910 487.846 L 382.062 494.955 386.781 489.694 C 395.972 479.447, 407.460 471.666, 417.932 468.593 C 424.766 466.589, 437.093 466.542, 443.672 468.495 C 449.588 470.252, 457.643 476.901, 459.637 481.673 C 461.516 486.170, 461.433 486.285, 457.750 484.302 C 455.549 483.117, 452.214 482.544, 447.415 482.526 C 441.180 482.503, 439.820 482.853, 436.089 485.439 C 429.649 489.901, 427.526 494.742, 427.512 505 C 427.502 512.361, 427.887 514.288, 430.388 519.383 C 436.542 531.914, 450.604 542.398, 467 546.676 C 475.711 548.948, 494.171 548.928, 503 546.635 C 510.597 544.663, 523.303 539.970, 522.695 539.362 C 522.464 539.131, 518.329 539.630, 513.507 540.471 C 495.005 543.697, 473.718 541.864, 461.098 535.959 C 453.796 532.542, 444.600 525.989, 443.055 523.103 C 442.076 521.274, 442.197 521.271, 447.775 522.989 C 460.629 526.948, 478.620 526.319, 493.756 521.383 C 501.848 518.744, 514.071 512.823, 523.961 506.751 C 549.152 491.287, 561.316 485.630, 578.726 481.282 C 587.576 479.072, 591.733 478.594, 602 478.607 C 618.102 478.626, 622.499 479.665, 644.766 488.712 C 646.496 489.415, 656.173 468.873, 659.507 457.420 C 664.384 440.671, 666.287 426.162, 665.729 410 C 664.572 376.517, 653.927 346.616, 634.248 321.579 C 611.471 292.599, 580.081 273.106, 543 264.914 C 529.163 261.858, 501.272 261.347, 487.500 263.898 M 511.667 335.667 C 511.300 336.033, 511 337.781, 511 339.549 C 511 342.442, 510.464 343.027, 505.676 345.370 C 500.514 347.896, 499.138 349.470, 497.045 355.250 C 496.498 356.762, 495.363 358, 494.525 358 C 492.661 358, 492.515 360.866, 494.302 362.390 C 495.200 363.156, 495.483 365.438, 495.213 369.750 L 494.822 376 491.411 376 C 488.066 376, 488 376.083, 487.989 380.250 C 487.983 382.587, 487.701 386.177, 487.362 388.226 C 486.801 391.618, 486.992 392.047, 489.490 392.996 L 492.233 394.039 491.560 402.770 C 491.189 407.571, 490.472 415.100, 489.967 419.500 C 489.461 423.900, 487.229 446.385, 485.007 469.467 C 482.784 492.549, 480.595 511.805, 480.142 512.258 C 479.689 512.711, 476.297 514.138, 472.606 515.428 C 463.621 518.567, 463.247 519.283, 471.006 518.493 C 488.846 516.678, 502.371 510.708, 534.500 490.468 C 538.350 488.043, 541.840 485.932, 542.255 485.778 C 543.024 485.491, 540.856 460.709, 536.455 419.500 C 535.104 406.850, 533.999 395.926, 533.999 395.225 C 534 394.524, 535.063 393.546, 536.363 393.052 C 538.815 392.120, 540.492 388.422, 538.906 387.442 C 538.408 387.134, 538 384.434, 538 381.441 L 538 376 534.500 376 L 531 376 531 369.860 C 531 365.461, 531.441 363.398, 532.554 362.584 C 534.241 361.351, 533.587 358.032, 531.643 357.955 C 531.014 357.930, 529.375 355.575, 528 352.721 C 525.994 348.558, 524.562 347.059, 520.750 345.132 C 516.872 343.171, 516 342.240, 516 340.065 C 516 336.476, 513.448 333.885, 511.667 335.667 M 499.417 363.917 C 499.188 364.146, 499 366.733, 499 369.667 C 499 374.818, 499.094 375, 501.750 374.999 C 504.427 374.998, 504.501 374.846, 504.531 369.249 C 504.560 363.863, 504.412 363.500, 502.197 363.500 C 500.897 363.500, 499.646 363.688, 499.417 363.917 M 509 365 C 507.757 366.243, 507 368.333, 507 370.521 C 507 374.834, 510.376 376.953, 514.790 375.411 C 518.426 374.140, 519.158 368.158, 516.057 365.057 C 513.470 362.470, 511.545 362.455, 509 365 M 521.126 370 L 520.990 376 523.936 376 C 527.762 376, 528.214 375.094, 527.410 369.033 C 526.792 364.376, 526.538 364, 524.002 364 C 521.334 364, 521.258 364.159, 521.126 370 M 492 383 C 492 385.889, 492.417 387, 493.500 387 C 494.583 387, 495 385.889, 495 383 C 495 380.111, 494.583 379, 493.500 379 C 492.417 379, 492 380.111, 492 383 M 500.250 379.718 C 499.563 379.965, 499 381.704, 499 383.583 C 499 386.333, 499.390 387, 501 387 C 502.613 387, 503 386.333, 503 383.559 C 503 379.937, 502.313 378.978, 500.250 379.718 M 506.880 381.365 C 505.340 384.744, 506.415 387.222, 509.246 386.820 C 511.092 386.558, 511.500 385.870, 511.500 383.014 C 511.500 378.621, 508.601 377.587, 506.880 381.365 M 515.360 380.505 C 514.277 383.326, 515.477 386.497, 517.750 386.820 C 519.711 387.098, 520 386.695, 520 383.686 C 520 381.040, 519.518 380.107, 517.939 379.694 C 516.712 379.374, 515.668 379.702, 515.360 380.505 M 524.693 379.760 C 521.863 380.400, 522.761 386.395, 525.750 386.820 C 527.717 387.099, 528 386.697, 528 383.629 C 528 379.800, 527.436 379.140, 524.693 379.760 M 531.187 383.242 C 531.393 385.377, 532.097 386.597, 533.250 386.815 C 534.652 387.081, 535 386.436, 535 383.573 C 535 380.630, 534.636 380, 532.937 380 C 531.212 380, 530.925 380.532, 531.187 383.242 M 496 400.500 C 496 404.075, 496.176 407, 496.390 407 C 496.605 407, 502.342 404.810, 509.140 402.132 C 515.938 399.455, 523.188 396.720, 525.250 396.055 C 527.313 395.389, 529 394.655, 529 394.422 C 529 394.190, 521.575 394, 512.500 394 L 496 394 496 400.500 M 511.500 422.261 L 493.500 429.500 492.239 440.905 C 491.545 447.178, 491.168 452.502, 491.401 452.735 C 491.635 452.968, 496.679 451.225, 502.612 448.862 C 511.334 445.388, 512.929 444.455, 510.949 443.985 C 508.663 443.442, 508.524 443.042, 508.854 437.952 C 509.257 431.749, 509.400 431.392, 512.033 429.982 C 515.142 428.319, 518 431.952, 518 437.567 C 518 441.838, 518.146 442.091, 520.250 441.457 C 525.337 439.923, 533.236 436.449, 533.246 435.741 C 533.338 428.982, 531.601 415.002, 530.670 415.011 C 530.026 415.017, 521.400 418.279, 511.500 422.261 M 512.500 465.538 C 500.950 470.113, 490.858 474.255, 490.074 474.741 C 489.098 475.345, 488.282 479.243, 487.493 487.063 C 486.858 493.353, 486.436 498.636, 486.555 498.803 C 486.675 498.969, 490.864 497.507, 495.865 495.553 C 500.865 493.599, 505.417 492, 505.978 492 C 506.565 492, 507 489.329, 507 485.723 C 507 478.168, 508.773 475, 513 475 C 516.549 475, 519 478.155, 519 482.723 C 519 484.525, 519.222 486, 519.493 486 C 519.764 486, 524.073 484.364, 529.068 482.365 L 538.151 478.730 537.609 474.115 C 537.312 471.577, 536.784 466.688, 536.436 463.250 C 536.052 459.460, 535.350 457.043, 534.652 457.109 C 534.018 457.170, 524.050 460.962, 512.500 465.538 M 533.007 728.593 C 525.342 731.917, 521.958 738.415, 523.980 745.927 C 525.472 751.466, 529.478 754.375, 539.171 756.957 C 549.297 759.654, 552.233 761.357, 551.811 764.288 C 551.074 769.406, 539.535 770.354, 530.997 765.998 C 526.770 763.842, 526.597 763.831, 525.276 765.637 C 523.209 768.463, 522.639 771.861, 523.965 773.458 C 526.078 776.004, 535.162 778.393, 542.598 778.358 C 555.126 778.300, 563 772.441, 563 763.179 C 563 754.652, 559.928 751.994, 545.535 748.063 C 536.424 745.575, 535 744.675, 535 741.403 C 535 736.123, 546.277 734.506, 554.271 738.640 C 557.605 740.364, 558.240 739.954, 559.895 735.010 C 560.903 732, 560.825 731.345, 559.328 730.251 C 554.641 726.823, 539.314 725.858, 533.007 728.593 M 772.380 729.897 C 756.928 737.207, 753.082 756.303, 764.369 769.672 C 768.933 775.078, 776.180 778.004, 784.946 777.978 C 801.157 777.931, 811.966 767.719, 811.990 752.429 C 812.022 732.748, 791.286 720.953, 772.380 729.897 M 228.363 731.701 C 227.496 733.791, 222.785 744.369, 217.894 755.210 C 213.002 766.050, 209 775.388, 209 775.960 C 209 776.553, 211.350 777, 214.472 777 L 219.944 777 222.095 772 L 224.246 767 235.903 767 L 247.560 767 249.474 771.934 C 251.514 777.189, 252.763 777.963, 259.250 777.986 C 261.907 777.996, 263 777.567, 263 776.514 C 263 775.697, 259.903 768.159, 256.117 759.764 C 252.332 751.369, 247.670 740.900, 245.757 736.500 L 242.279 728.500 236.109 728.201 L 229.938 727.903 228.363 731.701 M 268 732.471 L 268 736.942 281.167 737.221 L 294.334 737.500 288.987 744 C 286.046 747.575, 279.896 754.834, 275.320 760.130 C 268.309 768.245, 267 770.311, 267 773.263 C 267 776.051, 267.460 776.890, 269.250 777.370 C 272.253 778.175, 304.897 778.171, 308.926 777.365 C 311.943 776.761, 312.087 776.524, 311.801 772.615 L 311.500 768.500 297.377 768 L 283.253 767.500 296.627 751.512 C 308.588 737.212, 310 735.127, 310 731.762 L 310 728 289 728 L 268 728 268 732.471 M 332.265 737.750 C 329.988 743.112, 325.172 754, 321.562 761.944 C 317.953 769.888, 315 776.751, 315 777.194 C 315 777.637, 317.481 778, 320.513 778 L 326.025 778 328.407 772.615 L 330.789 767.229 339.644 766.579 C 351.621 765.701, 353.845 766.448, 355.905 772.040 L 357.549 776.500 363.901 776.801 C 368.812 777.034, 370.129 776.807, 369.708 775.801 C 369.173 774.522, 358.031 749.427, 351.720 735.284 L 348.500 728.069 342.453 728.034 L 336.405 728 332.265 737.750 M 377.388 741.750 C 377.635 749.313, 377.873 760.337, 377.918 766.250 L 378 777 383.500 777 L 389 777 389 770.696 C 389 764.878, 389.254 764.146, 392.298 761.196 C 394.111 759.438, 395.870 758, 396.206 758 C 396.542 758, 400.073 762.275, 404.052 767.500 C 408.031 772.725, 411.785 777.011, 412.393 777.024 C 413.002 777.038, 415.863 777.314, 418.750 777.637 C 422.336 778.040, 424 777.868, 424 777.096 C 424 776.474, 419.436 769.886, 413.858 762.457 C 408.281 755.028, 404.033 748.634, 404.419 748.248 C 404.805 747.862, 409.256 743.261, 414.310 738.023 L 423.500 728.500 417 728.172 L 410.500 727.843 400.373 738.422 C 394.804 744.240, 389.966 749, 389.623 749 C 389.281 749, 389 744.275, 389 738.500 L 389 728 382.970 728 L 376.939 728 377.388 741.750 M 432 752.371 L 432 776.742 437.125 777.422 C 442.755 778.169, 464.066 778.057, 467.096 777.265 C 468.600 776.871, 469 775.853, 469 772.413 L 469 768.060 456.250 767.780 L 443.500 767.500 443.229 747.750 L 442.958 728 437.479 728 L 432 728 432 752.371 M 477 752.481 L 477 776.962 479.362 777.555 C 480.661 777.881, 483.248 778.002, 485.112 777.824 L 488.500 777.500 488.767 752.750 L 489.035 728 483.017 728 L 477 728 477 752.481 M 566.193 732.250 L 566.500 736.500 574.750 736.790 L 583 737.081 583 757.040 L 583 777 589.040 777 L 595.080 777 594.998 759.250 C 594.953 749.487, 594.936 740.487, 594.958 739.250 C 594.998 737.123, 595.405 737, 602.399 737 L 609.799 737 610.157 732.500 L 610.514 728 588.200 728 L 565.885 728 566.193 732.250 M 618 745.032 C 618 758.143, 618.356 762.917, 619.548 765.768 C 623.037 774.118, 629.527 778, 640 778 C 647.878 778, 652.634 776.157, 657.186 771.342 C 661.632 766.639, 662.291 763.564, 662.773 745.250 L 663.227 728 657.210 728 L 651.193 728 651.301 743.750 C 651.439 764.159, 649.729 768, 640.500 768 C 631.499 768, 629.748 764.246, 629.190 743.750 L 628.761 728 623.381 728 L 618 728 618 745.032 M 676 752.407 L 676 776.813 685.615 777.534 C 707.764 779.195, 720.540 773.269, 724.550 759.476 C 727.911 747.914, 723.087 737.035, 712.035 731.250 C 705.837 728.006, 705.797 728, 690.913 728 L 676 728 676 752.407 M 736 752.500 L 736 777 741.396 777 L 746.792 777 747.512 768.870 C 747.907 764.398, 747.906 753.373, 747.509 744.370 L 746.787 728 741.394 728 L 736 728 736 752.500 M 687.224 752.250 L 687.500 767.500 694.336 767.798 C 699.754 768.034, 702.112 767.640, 705.708 765.899 C 716.969 760.448, 716.110 743.286, 704.329 738.364 C 702.533 737.614, 697.888 737, 694.006 737 L 686.948 737 687.224 752.250 M 776.041 739.619 C 771.763 743.219, 769.999 747.040, 770.004 752.700 C 770.008 758.412, 772.562 763.127, 777.241 766.064 C 781.863 768.966, 790.897 768.379, 794.581 764.937 C 798.433 761.338, 800 757.681, 799.996 752.300 C 799.989 743.145, 793.704 737.011, 784.327 737.004 C 780.201 737.001, 778.523 737.531, 776.041 739.619 M 233.453 744.665 C 232.476 747.324, 231.074 751.017, 230.338 752.872 C 229.602 754.727, 229 756.639, 229 757.122 C 229 757.605, 232.180 758, 236.067 758 C 242.934 758, 243.115 757.936, 242.447 755.750 C 241.276 751.920, 236.857 741.545, 236.022 740.665 C 235.587 740.206, 234.431 742.006, 233.453 744.665 M 339.123 747.711 C 337.399 751.995, 335.992 756.063, 335.995 756.750 C 335.998 757.621, 337.970 758, 342.500 758 C 347.035 758, 348.999 757.622, 348.997 756.750 C 348.993 755.589, 343.317 740.984, 342.585 740.251 C 342.404 740.071, 340.846 743.428, 339.123 747.711" stroke="none" fill="#00e5c7" fill-rule="evenodd"/>
	<path fill-opacity="0.548" d="M 490.934 245.424 C 464.823 248.771, 439.116 258.294, 416.737 272.911 C 399.860 283.935, 381.516 302.024, 369.169 319.817 C 362.753 329.063, 353.263 348.188, 349.038 360.388 C 341.786 381.323, 338.403 410.585, 340.900 430.772 C 347.582 484.805, 389.737 554.046, 472.544 647 C 486.597 662.776, 506.704 684.080, 509.207 685.847 C 512.034 687.843, 516.063 685.801, 521.753 679.488 C 524.364 676.592, 532.135 668.194, 539.021 660.826 C 550.717 648.314, 571.622 624.345, 589.004 603.519 C 605.784 583.414, 644 530.352, 644 527.158 C 644 525.068, 625.296 521.040, 615.500 521.021 C 606.811 521.005, 591.831 523.378, 583.665 526.064 C 571.309 530.129, 557.686 537.870, 540.613 550.526 C 516.038 568.744, 502.923 575.259, 484.281 578.510 C 467.098 581.507, 453.889 579.795, 440.062 572.781 C 430.128 567.741, 428.072 565.100, 436.281 567.925 C 449.585 572.502, 469.348 572.906, 484.595 568.912 C 502.985 564.095, 518.032 556.199, 543.500 537.999 C 580.480 511.573, 612.744 503.639, 643.502 513.406 L 651.030 515.797 654.895 509.149 C 669.142 484.641, 680.090 455.197, 682.958 433.678 C 686.908 404.030, 680.539 368.119, 666.254 339.500 C 646.959 300.842, 613.578 270.617, 573 255.060 C 550.027 246.253, 515.813 242.236, 490.934 245.424 M 496.500 262.153 C 485.294 263.402, 465.203 268.418, 454.908 272.537 C 437.781 279.389, 423.327 288.317, 409.660 300.486 C 378.229 328.469, 361.824 362.157, 357.545 407.500 C 356.356 420.094, 360.169 444.754, 365.991 462.133 C 368.484 469.573, 377.262 488.305, 380.817 493.770 C 381.408 494.679, 384.050 492.688, 390.107 486.770 C 402.888 474.283, 413.351 468.839, 427.326 467.408 C 439.815 466.128, 452.306 470.851, 457.716 478.898 C 460.916 483.659, 460.766 485.255, 457.250 483.857 C 448.352 480.320, 440.744 481.114, 434.543 486.225 C 429.225 490.608, 427.049 495.933, 427.022 504.624 C 426.997 512.716, 428.610 518.137, 432.864 524.261 C 448.528 546.812, 480.796 555.003, 511.947 544.334 C 526.814 539.242, 529.192 536.681, 516.331 539.612 C 505.738 542.026, 482.210 542.106, 472.896 539.760 C 463.189 537.315, 453.406 532.271, 447.609 526.723 C 444.678 523.918, 443.353 522.111, 444.500 522.485 C 457.399 526.691, 474.845 526.924, 489.413 523.084 C 498.545 520.677, 514.792 513.168, 524.673 506.788 C 544.298 494.118, 559.693 486.729, 575.629 482.334 C 584.567 479.869, 587.106 479.610, 602.500 479.597 C 618.504 479.583, 619.998 479.747, 628 482.408 C 632.675 483.962, 638.633 486.311, 641.241 487.629 L 645.981 490.024 651.359 478.762 C 666.619 446.804, 670.120 415.723, 662.367 381.040 C 657.893 361.024, 649.999 342.777, 639.263 327.630 C 631.760 317.046, 611.655 296.923, 601.500 289.834 C 570.534 268.219, 532.365 258.156, 496.500 262.153 M 511.568 337.176 C 511.334 337.904, 511.223 339.579, 511.321 340.899 C 511.459 342.752, 510.818 343.520, 508.500 344.276 C 503.308 345.970, 499.142 349.793, 497.874 354.026 C 497.219 356.212, 496.106 358, 495.401 358 C 493.258 358, 492.590 360.227, 494.347 361.512 C 495.597 362.426, 496 364.340, 496 369.360 L 496 376 492.019 376 L 488.038 376 488.662 380.549 C 489.064 383.481, 488.826 385.957, 487.992 387.515 C 486.944 389.473, 486.940 390.223, 487.972 391.466 C 488.672 392.310, 489.865 393, 490.622 393 C 492.817 393, 492.597 397.810, 488.611 437 C 487.800 444.975, 485.917 464.550, 484.427 480.500 C 482.842 497.468, 481.190 510.364, 480.446 511.582 C 479.722 512.768, 476.448 514.612, 472.837 515.869 L 466.500 518.074 474 517.464 C 487.945 516.330, 501.870 510.286, 528.573 493.777 C 541.153 485.999, 541.962 485.310, 541.981 482.346 C 542.015 476.699, 536.163 417.657, 533.547 397.273 C 533.199 394.557, 533.559 393.841, 535.817 392.759 C 537.593 391.908, 538.476 390.717, 538.429 389.237 C 538.014 376.254, 538.280 377.154, 534.750 376.813 C 531.520 376.502, 531.497 376.461, 530.996 370.168 C 530.647 365.777, 530.877 363.517, 531.746 362.796 C 533.444 361.387, 533.339 358, 531.598 358 C 530.827 358, 529.762 356.756, 529.232 355.237 C 527.736 350.943, 523.278 346.247, 519.524 345.008 C 516.564 344.031, 516.073 343.396, 515.807 340.200 C 515.593 337.636, 514.967 336.416, 513.747 336.184 C 512.783 336.002, 511.802 336.448, 511.568 337.176 M 499 369.566 L 499 376.133 501.750 375.816 C 504.386 375.513, 504.512 375.240, 504.798 369.250 L 505.095 363 502.048 363 L 499 363 499 369.566 M 508.571 364.571 C 507.707 365.436, 506.994 366.673, 506.986 367.321 C 506.979 367.970, 506.719 369.445, 506.409 370.601 C 505.632 373.496, 508.418 376, 512.416 376 C 515.939 376, 519 373.492, 519 370.606 C 519 368.535, 517.141 364.794, 515.600 363.765 C 513.733 362.519, 510.221 362.922, 508.571 364.571 M 520.840 363.694 C 520.649 364.137, 520.495 366.975, 520.497 370 L 520.500 375.500 524.299 375.813 L 528.099 376.127 527.799 369.813 C 527.502 363.534, 527.483 363.498, 524.344 363.194 C 522.608 363.025, 521.031 363.250, 520.840 363.694 M 491 383 C 491 386.333, 491.333 387, 493 387 C 494.667 387, 495 386.333, 495 383 C 495 379.667, 494.667 379, 493 379 C 491.333 379, 491 379.667, 491 383 M 498.667 379.667 C 498.300 380.033, 498 381.833, 498 383.667 C 498 386.556, 498.333 387, 500.500 387 C 502.750 387, 503 386.600, 503 383 C 503 379.788, 502.639 379, 501.167 379 C 500.158 379, 499.033 379.300, 498.667 379.667 M 506.667 379.667 C 506.300 380.033, 506 381.833, 506 383.667 C 506 386.704, 506.267 387, 509 387 C 511.833 387, 512 386.778, 512 383 C 512 379.476, 511.722 379, 509.667 379 C 508.383 379, 507.033 379.300, 506.667 379.667 M 515 383 C 515 386.600, 515.250 387, 517.500 387 C 519.750 387, 520 386.600, 520 383 C 520 379.400, 519.750 379, 517.500 379 C 515.250 379, 515 379.400, 515 383 M 523 383 C 523 386.600, 523.250 387, 525.500 387 C 527.750 387, 528 386.600, 528 383 C 528 379.400, 527.750 379, 525.500 379 C 523.250 379, 523 379.400, 523 383 M 531 383 C 531 386.275, 531.347 387, 532.917 387 C 535.184 387, 535.756 385.701, 535.190 381.840 C 534.901 379.871, 534.194 379, 532.887 379 C 531.352 379, 531 379.747, 531 383 M 496.547 394.250 C 495.973 396.089, 494.843 408, 495.242 408 C 495.430 408, 499.840 406.274, 505.042 404.165 C 510.244 402.056, 518.014 399.061, 522.308 397.510 C 527.522 395.627, 529.681 394.414, 528.808 393.860 C 526.571 392.441, 497 392.799, 496.547 394.250 M 530 414.762 C 529.175 415.010, 520.559 418.334, 510.853 422.148 C 490.702 430.069, 492.709 427.784, 491.439 444.250 C 490.921 450.956, 491.056 453, 492.017 453 C 493.740 453, 513.273 445.115, 514.450 443.945 C 515.047 443.351, 514.213 443, 512.200 443 L 509 443 509 437.622 C 509 431.688, 510.429 429.639, 514.195 430.173 C 516.283 430.469, 516.528 431.090, 516.798 436.750 C 516.961 440.188, 517.261 443, 517.462 443 C 517.664 443, 521.444 441.620, 525.861 439.933 L 533.893 436.866 533.343 428.183 C 532.639 417.051, 531.924 414.183, 530 414.762 M 510.500 465.893 L 488.500 474.595 487.345 484.548 C 485.830 497.603, 485.802 499, 487.060 499 C 487.644 499, 492.311 497.332, 497.433 495.294 L 506.745 491.588 507.334 484.558 C 507.754 479.544, 508.419 477.167, 509.653 476.265 C 513.758 473.263, 517.894 475.787, 518.698 481.785 C 519.009 484.103, 519.677 486, 520.182 486 C 522.290 486, 537.239 479.542, 537.658 478.450 C 537.908 477.797, 537.750 472.816, 537.307 467.381 C 536.583 458.514, 536.295 457.484, 534.500 457.345 C 533.400 457.260, 522.600 461.107, 510.500 465.893 M 534.578 728.424 C 525.683 731.731, 521.421 741.055, 525.414 748.470 C 527.644 752.612, 530.832 754.398, 540.342 756.834 C 551.568 759.710, 555.146 763.892, 549.529 767.573 C 544.911 770.599, 535.787 769.267, 526.915 764.273 C 526.593 764.091, 525.489 765.807, 524.461 768.086 C 522.627 772.153, 522.628 772.255, 524.529 773.645 C 527.826 776.056, 536.059 778, 542.970 778 C 557.606 778, 566.898 767.438, 561.479 756.960 C 559.578 753.283, 554.022 750.401, 544.834 748.326 C 538.169 746.821, 534 744.369, 534 741.955 C 534 741.380, 535.163 739.746, 536.585 738.324 C 538.950 735.959, 539.697 735.782, 545.380 736.238 C 548.796 736.512, 552.993 737.462, 554.708 738.349 L 557.825 739.961 559.327 735.555 L 560.828 731.148 556.664 729.442 C 550.955 727.104, 539.545 726.578, 534.578 728.424 M 775.969 728.536 C 770.314 730.279, 763.613 735.923, 760.745 741.357 C 757.691 747.146, 757.687 757.847, 760.738 763.628 C 765.949 773.503, 776.172 778.806, 787.941 777.739 C 795.229 777.078, 800.733 774.246, 805.702 768.601 C 814.661 758.423, 814.195 745.277, 804.521 735.344 C 797.008 727.630, 786.803 725.196, 775.969 728.536 M 228.687 731.750 C 227.797 733.813, 223.004 744.592, 218.035 755.704 C 213.066 766.817, 209 776.154, 209 776.454 C 209 776.754, 211.432 777, 214.404 777 L 219.809 777 222.088 771.500 L 224.368 766 235.739 766 L 247.111 766 249.629 771.500 L 252.147 777 257.573 777 C 260.558 777, 263 776.760, 263 776.466 C 263 776.172, 260.607 770.660, 257.682 764.216 C 254.757 757.772, 249.944 746.987, 246.986 740.250 L 241.608 728 235.956 728 C 230.379 728, 230.282 728.050, 228.687 731.750 M 268 731.893 C 268 734.520, 268.514 735.983, 269.582 736.393 C 270.452 736.727, 276.302 737, 282.582 737 C 288.862 737, 294 737.249, 294 737.553 C 294 738.258, 285.529 748.781, 275.126 761 C 268.648 768.608, 267.033 771.147, 267.019 773.750 L 267 777 289 777 L 311 777 311 772.527 L 311 768.055 296.967 767.777 L 282.933 767.500 294.068 754 C 300.193 746.575, 306.283 739.266, 307.602 737.759 C 309.156 735.982, 310 733.783, 310 731.509 L 310 728 289 728 L 268 728 268 731.893 M 334.855 732.699 C 333.043 736.886, 324.704 755.534, 317.392 771.750 L 315.025 777 320.763 776.989 L 326.500 776.978 328.500 771.739 L 330.500 766.500 342.361 766.500 L 354.223 766.500 356.181 771.750 L 358.140 777 364.059 777 L 369.978 777 367.496 771.750 C 366.131 768.862, 361.245 757.950, 356.638 747.500 L 348.262 728.500 342.597 728.199 L 336.933 727.898 334.855 732.699 M 378 752.500 L 378 777 383.500 777 L 389 777 389 770.450 C 389 764.359, 389.237 763.657, 392.389 760.411 L 395.778 756.921 400.184 762.211 C 402.607 765.120, 406.145 769.624, 408.045 772.219 L 411.500 776.938 417.872 776.969 C 422.823 776.993, 424.029 776.721, 423.277 775.750 C 418.519 769.603, 406.934 753.927, 405.503 751.700 C 403.461 748.521, 402.851 749.423, 416.957 734.750 L 423.446 728 417.140 728 L 410.834 728 399.953 739.250 L 389.071 750.500 389.036 739.250 L 389 728 383.500 728 L 378 728 378 752.500 M 432 752.500 L 432 777 450 777 L 468 777 468 772.500 L 468 768 455.500 768 L 443 768 443 748 L 443 728 437.500 728 L 432 728 432 752.500 M 478 752.500 L 478 777 483.500 777 L 489 777 489 752.500 L 489 728 483.500 728 L 478 728 478 752.500 M 567 732.500 L 567 737 575 737 L 583 737 583 757 L 583 777 588.500 777 L 594 777 594 757 L 594 737 602 737 L 610 737 610 732.500 L 610 728 588.500 728 L 567 728 567 732.500 M 618.006 743.750 C 618.012 760.527, 618.703 764.795, 622.260 770.031 C 628.363 779.010, 644.953 780.645, 654.859 773.242 C 660.956 768.686, 661.953 764.765, 661.978 745.250 L 662 728 657 728 L 652 728 652 743.032 C 652 758.956, 651.202 762.784, 647.125 766.417 C 645.686 767.699, 643.495 768.333, 640.500 768.333 C 637.505 768.333, 635.314 767.699, 633.875 766.417 C 629.798 762.784, 629 758.956, 629 743.032 L 629 728 623.500 728 L 618 728 618.006 743.750 M 676 752.500 L 676 777 689.962 777 C 706.442 777, 712.424 775.340, 718.751 769.014 C 727.308 760.457, 727.266 745.351, 718.661 736.336 C 712.352 729.727, 706.317 728, 689.525 728 L 676 728 676 752.500 M 736 752.500 L 736 777 741.500 777 L 747 777 747 752.500 L 747 728 741.500 728 L 736 728 736 752.500 M 778.020 737.752 C 771.344 741.106, 767.947 749.375, 770.045 757.165 C 773.016 768.202, 787.226 772.369, 795.447 764.614 C 803.859 756.681, 801.891 742.577, 791.729 737.964 C 786.448 735.566, 782.491 735.505, 778.020 737.752 M 687 752.500 L 687 768 695.250 767.996 C 701.717 767.993, 704.204 767.563, 706.759 766.005 C 716.263 760.211, 716.462 745.783, 707.125 739.439 C 704.036 737.340, 702.384 737, 695.268 737 L 687 737 687 752.500 M 234.237 741.674 C 233.680 743.228, 232.070 747.538, 230.657 751.250 L 228.090 758 235.545 758 C 240.231 758, 243 757.598, 243 756.917 C 243 755.433, 237.071 740.699, 236.062 739.674 C 235.614 739.220, 234.793 740.120, 234.237 741.674 M 338.605 748.007 C 336.622 752.961, 335 757.236, 335 757.507 C 335 757.778, 338.375 758, 342.500 758 C 346.625 758, 350 757.778, 350 757.507 C 350 756.717, 342.820 739, 342.500 739 C 342.340 739, 340.588 743.053, 338.605 748.007" stroke="none" fill="#a6fff2" fill-rule="evenodd"/>
</svg>